<svg id="line" height="512" viewBox="0 0 64 64" width="512" xmlns="http://www.w3.org/2000/svg"><path d="m36.422 37 12.2-21.126a24.98 24.98 0 0 0 -36.597 21.126z" fill="#c4a2fc"/><path d="m50.349 16.878-12.194 21.122 12.2 21.122a24.972 24.972 0 0 0 0-42.244z" fill="#c4a2fc"/><path d="m36.422 39h-24.4a24.98 24.98 0 0 0 36.597 21.126z" fill="#c4a2fc"/><g fill="#151a6a"><path d="m44.5 43h-39a3.5 3.5 0 0 0 0 7h39a3.5 3.5 0 0 0 0-7zm0 5h-39a1.5 1.5 0 0 1 0-3h39a1.5 1.5 0 0 1 0 3z"/><path d="m21 41h8a1 1 0 0 0 1-1v-17a3 3 0 0 0 -3-3h-4a3 3 0 0 0 -3 3v17a1 1 0 0 0 1 1zm1-18a1 1 0 0 1 1-1h4a1 1 0 0 1 1 1v16h-6z"/><path d="m7 41h8a1 1 0 0 0 1-1v-30a3 3 0 0 0 -3-3h-4a3 3 0 0 0 -3 3v30a1 1 0 0 0 1 1zm1-31a1 1 0 0 1 1-1h4a1 1 0 0 1 1 1v29h-6z"/><path d="m35 41h8a1 1 0 0 0 1-1v-36a3 3 0 0 0 -3-3h-4a3 3 0 0 0 -3 3v36a1 1 0 0 0 1 1zm1-37a1 1 0 0 1 1-1h4a1 1 0 0 1 1 1v35h-6z"/></g></svg>