<svg id="Layer_1" height="512" viewBox="0 0 128 128" width="64px" height="64px" xmlns="http://www.w3.org/2000/svg" xmlns:xlink="http://www.w3.org/1999/xlink" data-name="Layer 1">
<linearGradient id="linear-gradient" gradientUnits="userSpaceOnUse" x1="107.826" x2="41.831" y1="109.811" y2="43.815">
    <stop offset="0" stop-color="#48a0dc"/><stop offset="1" stop-color="#88c057"/>
</linearGradient>
<path d="m14.063 122.737a1.749 1.749 0 0 0 2.475 0l19.227-19.227a7.92 7.92 0 0 0 2.335-5.638 8.059 8.059 0 0 0 -.094-1.164l23.678-23.668a25.954 25.954 0 0 0 14.205 3.9 35.663 35.663 0 0 0 5.886-.5c9.4-1.574 18.835-6.694 26.558-14.418a54.3 54.3 0 0 0 10.591-14.765 1.75 1.75 0 0 0 -3.152-1.521 50.8 50.8 0 0 1 -9.914 13.812c-7.212 7.21-15.97 11.983-24.658 13.438-7.326 1.228-13.828-.052-18.632-3.6a1.748 1.748 0 0 0 -.18-.127 18.734 18.734 0 0 1 -3.648-3.647 1.732 1.732 0 0 0 -.127-.179c-3.546-4.8-4.825-11.305-3.6-18.633 1.455-8.69 6.229-17.449 13.441-24.662s15.972-11.983 24.662-13.438c8.474-1.419 15.847.507 20.762 5.422 4.071 4.07 6.095 9.8 5.853 16.564a1.75 1.75 0 0 0 3.5.125c.277-7.763-2.1-14.39-6.876-19.164-5.737-5.737-14.192-8.009-23.814-6.4-9.406 1.575-18.841 6.695-26.561 14.419s-12.844 17.155-14.418 26.559c-1.291 7.711-.081 14.672 3.4 20.087l-10.104 10.109a1.75 1.75 0 0 0 2.476 2.479l9.766-9.778c.278.311.56.62.857.917s.623.561.935.84l-22.319 22.314a8.054 8.054 0 0 0 -.808-.958 7.951 7.951 0 0 0 -.959-.806l6.739-6.742a1.75 1.75 0 0 0 -2.476-2.475l-7.782 7.788a7.959 7.959 0 0 0 -6.8 2.237l-19.224 19.226a1.749 1.749 0 0 0 0 2.475zm19.227-28.027a4.466 4.466 0 0 1 .405 5.829l-6.233-6.239a4.467 4.467 0 0 1 5.828.41zm-8.349 2.023 6.325 6.325-15.966 15.967-6.325-6.325zm95.9-60.336a1.75 1.75 0 0 1 1.275 2.121q-.252 1.011-.559 2.025a1.75 1.75 0 0 1 -1.674 1.242 1.769 1.769 0 0 1 -.508-.075 1.75 1.75 0 0 1 -1.167-2.183q.282-.929.512-1.855a1.752 1.752 0 0 1 2.119-1.272zm-22.471-25.647a32.7 32.7 0 0 0 -10.97 2.033c-.049.017-.1.034-.145.056a45.327 45.327 0 0 0 -11.903 6.591c-.024.015-.045.034-.068.051a50.811 50.811 0 0 0 -5.061 4.427c-6.848 6.849-11.374 15.126-12.744 23.308-1.279 7.654.396 14.253 4.721 18.584 4.248 4.248 9.817 5.14 13.74 5.14a32.715 32.715 0 0 0 10.988-2.04c.041-.014.081-.029.121-.046a45.329 45.329 0 0 0 11.921-6.6c.015-.01.029-.022.044-.033a50.806 50.806 0 0 0 5.076-4.439 46.945 46.945 0 0 0 11.093-17.059c.01-.023.017-.045.026-.068a36.071 36.071 0 0 0 1.625-6.179c1.281-7.655-.4-14.254-4.725-18.582-4.247-4.252-9.816-5.144-13.739-5.144zm0 3.5c.484 0 1 .018 1.535.056l-4.792 4.794-3.858-3.858a27.717 27.717 0 0 1 7.115-.992zm-18.934 25.475 6.6-6.6 8.839 8.839-6.6 6.6zm6.364 11.314-6.6 6.6-8.836-8.839 6.6-6.6zm2.715-20.393 6.6-6.6 8.839 8.839-6.6 6.6zm-.981-14.176 5.1 5.1-6.6 6.6-7.063-7.063a41.38 41.38 0 0 1 8.563-4.637zm-14.834 9.913c1.116-1.116 2.279-2.156 3.471-3.135l7.4 7.4-6.6 6.6-7.405-7.4c.969-1.19 2.014-2.348 3.134-3.465zm-5.285 6.269 7.074 7.074-6.6 6.6-5.111-5.111a40.771 40.771 0 0 1 4.635-8.564zm-6.484 15.142q.239-1.428.62-2.86l3.863 3.866-4.774 4.772a24.541 24.541 0 0 1 .291-5.778zm3.747 15.528a13.506 13.506 0 0 1 -3.269-5.57l6.48-6.48 8.839 8.839-6.5 6.5a13.428 13.428 0 0 1 -5.55-3.289zm11.266 4.114c-.484 0-1-.018-1.535-.056l4.791-4.794 3.859 3.859a27.718 27.718 0 0 1 -7.116.992zm10.838-2.221-5.1-5.1 6.6-6.6 7.063 7.063a41.383 41.383 0 0 1 -8.563 4.637zm14.834-9.915c-1.115 1.115-2.277 2.155-3.468 3.133l-7.4-7.4 6.6-6.6 7.4 7.4c-.968 1.194-2.014 2.353-3.132 3.467zm5.286-6.271-7.074-7.074 6.6-6.6 5.11 5.11a40.768 40.768 0 0 1 -4.638 8.568zm6.48-15.139q-.239 1.426-.619 2.856l-3.863-3.859 4.773-4.773a24.55 24.55 0 0 1 -.291 5.78zm-6.956-3.481-8.839-8.839 6.5-6.5a12.91 12.91 0 0 1 8.82 8.858zm-6.869 84.462v-2.794l2.039-8.6a1.735 1.735 0 0 0 .159-.669l1.313-5.535a1.75 1.75 0 1 0 -3.405-.807l-1.074 4.534h-5.031v-4.125a1.75 1.75 0 0 0 -3.5 0v4.125h-5.032l-1.074-4.528a1.75 1.75 0 1 0 -3.405.807l1.313 5.535a1.735 1.735 0 0 0 .159.669l2.039 8.6v2.794a7.75 7.75 0 0 0 15.5 0zm-13.7-10.371h4.2v5.627h-2.866zm10.2 10.375a4.25 4.25 0 0 1 -8.5 0v-1.248h8.5zm-2.5-4.748v-5.627h4.2l-1.334 5.627z" fill="url(#linear-gradient)"/>
</svg>