<svg xmlns="http://www.w3.org/2000/svg" width="183.782" height="45.088" viewBox="0 0 183.782 45.088"><defs><style>.a{fill:#fff;}</style></defs><g transform="translate(173.853 -494.86)"><g transform="translate(-118.954 511.449)"><g transform="translate(0 0.182)"><path class="a" d="M8.649-32.52V-37.4l4.4,4.88H15.7l.033-.116L10.5-38.492l4.847-5.476L15.3-44.1H12.735L8.649-39.468V-44.1H6.3v11.58Z" transform="translate(-6.3 44.1)"/></g><g transform="translate(14.226 0.182)"><path class="a" d="M12.967-37.152V-39.3H8.632v-2.647h5.542V-44.1H6.3v11.58h7.874v-2.151H8.632v-2.481Z" transform="translate(-6.3 44.1)"/></g><g transform="translate(28.056 0.182)"><path class="a" d="M12.967-37.152V-39.3H8.632v-2.647h5.542V-44.1H6.3v11.58h7.874v-2.151H8.632v-2.481Z" transform="translate(-6.3 44.1)"/></g><g transform="translate(41.885 0.182)"><path class="a" d="M8.649-36.54h2.283a3.9,3.9,0,0,0,3.921-3.8c0-1.538-.959-3.755-4.136-3.755H6.3v11.58H8.649Zm2.217-2.167H8.649v-3.259H10.8a1.561,1.561,0,0,1,1.7,1.621A1.593,1.593,0,0,1,10.866-38.707Z" transform="translate(-6.3 44.1)"/></g><g transform="translate(54.904 0.099)"><path class="a" d="M13.966-36.359l-3.391-8.056h-.149L7.1-36.359,3.743-44.332H1.89l5.128,11.7h.165l3.342-7.709,3.358,7.709h.165l5.128-11.7H17.324Z" transform="translate(-1.89 44.415)"/></g><g transform="translate(75.898 0.017)"><path class="a" d="M9.5-44.73c-4.417,0-5.724,3.524-5.724,5.939,0,2.481,1.307,5.955,5.724,5.955s5.724-3.474,5.724-5.955C15.227-41.206,13.92-44.73,9.5-44.73Zm0,10.389c-3.49,0-4-3.342-4-4.45s.513-4.433,4-4.433S13.49-39.9,13.49-38.791,12.994-34.341,9.5-34.341Z" transform="translate(-3.78 44.73)"/></g><g transform="translate(93.301 0.182)"><path class="a" d="M7.971-36.821H10.3l2.018,4.3h1.82l-2.117-4.5A3.689,3.689,0,0,0,14.6-40.477c0-1.472-.926-3.623-4.02-3.623H6.3v11.58H7.971Zm2.763-1.505H7.971v-4.3h2.7A2.065,2.065,0,0,1,12.9-40.477,2.093,2.093,0,0,1,10.733-38.327Z" transform="translate(-6.3 44.1)"/></g><g transform="translate(107.561 0.182)"><path class="a" d="M8-32.52v-5.426l5.112,5.426h2.018l.05-.1L9.559-38.492l5.277-5.492L14.8-44.1H12.768L8-39.088V-44.1H6.3v11.58Z" transform="translate(-6.3 44.1)"/></g><g transform="translate(120.579 0)"><path class="a" d="M5.583-41.733C5.666-42.957,6.642-43.2,7.866-43.2a10.382,10.382,0,0,1,2.961.744l.629-1.406a9.652,9.652,0,0,0-3.97-.926c-2.1,0-3.606,1.191-3.606,3.193,0,4.152,6.435,2.4,6.435,5.542,0,1.009-1.175,1.654-2.465,1.654a7.824,7.824,0,0,1-3.424-.86l-.645,1.34a8.322,8.322,0,0,0,4.2,1.026c2.349,0,4.1-1.373,4.1-3.143C12.084-40.591,5.583-39.069,5.583-41.733Z" transform="translate(-3.78 44.793)"/></g></g><g transform="translate(-173.853 494.86)"><path class="a" d="M20.941,45.088,10.442,32.08,16.18,4.193,20.941,0V45.088ZM41.823,19.22,31.444,32.077l-1.44-7,3.84-4.757-5.642-4L26.574,8.418Zm-29-9.043L11.2,18.087l-3.16,2.238,2.151,2.664-1.44,7L.06,19.22Z" transform="translate(-0.06)"/></g></g></svg>