<?xml version="1.0" encoding="iso-8859-1"?>
<!-- Generator: Adobe Illustrator 19.0.0, SVG Export Plug-In . SVG Version: 6.00 Build 0)  -->
<svg version="1.1" id="Capa_1" xmlns="http://www.w3.org/2000/svg" xmlns:xlink="http://www.w3.org/1999/xlink" x="0px" y="0px"
	 viewBox="0 0 512 512" style="enable-background:new 0 0 512 512;" xml:space="preserve">
<path style="fill:#2CD7FF;" d="M376.626,345.974l-0.301,0.027c19.771-26.404,31.492-59.166,31.492-94.615
	c0-87.218-70.957-158.175-158.174-158.175c-24.721,0-48.132,5.705-68.995,15.861c-0.286-0.085-0.577-0.158-0.878-0.21l-18.847-3.258
	c-4.168-0.721-8.12,2.072-8.84,6.234c-0.719,4.162,2.071,8.12,6.234,8.84l1.881,0.325c-41.478,28.544-68.731,76.337-68.731,130.383
	c0,87.218,70.958,158.175,158.175,158.175c43.864,0,83.611-17.953,112.292-46.891l16.077-1.463c4.207-0.383,7.307-4.104,6.923-8.31
	C384.554,348.691,380.83,345.591,376.626,345.974z M106.765,251.386c0-48.28,24.075-91.037,60.845-116.914
	c-0.406,3.964,2.313,7.622,6.298,8.311c0.441,0.076,0.879,0.113,1.312,0.113c3.653,0,6.885-2.626,7.528-6.347l2.163-12.514
	c19.444-9.924,41.446-15.526,64.732-15.526c78.782,0,142.877,64.095,142.877,142.878c0,31.915-10.52,61.418-28.272,85.227
	l-0.094-1.031c-0.381-4.207-4.098-7.306-8.31-6.924c-4.207,0.383-7.307,4.103-6.923,8.31l1.426,15.672
	c-25.849,25.71-61.452,41.623-100.703,41.623C170.86,394.265,106.765,330.17,106.765,251.386z"/>
<circle style="fill:#716499;" cx="366.93" cy="155.8" r="103.65"/>
<path style="fill:#FEC007;" d="M503.262,146.878c1.024-0.928,2.017-1.877,2.979-2.845c2.461-2.475,6.594,0.018,5.611,3.367
	c-4.538,15.462-13.013,30.014-25.422,42.075c-37.384,36.333-97.548,36.307-134.901-0.058c-38.736-37.71-39.057-99.685-0.952-137.79
	c11.865-11.865,26.047-20.005,41.09-24.419c3.381-0.992,5.802,3.18,3.306,5.667c-0.032,0.032-0.065,0.065-0.097,0.097
	c-30.38,30.38-30.699,79.44-0.97,110.22C423.246,173.568,471.981,175.253,503.262,146.878z"/>
<path style="fill:#FF9300;" d="M492.377,183.145c-1.568,1.826-3.209,3.601-4.942,5.334c-37.794,37.794-99.06,37.794-136.854,0
	c-37.794-37.784-37.794-99.06,0-136.854c1.733-1.733,3.508-3.374,5.334-4.942c-32.728,38.021-31.056,95.429,4.994,131.479
	C396.949,214.201,454.357,215.873,492.377,183.145z"/>
<path style="fill:#FEC007;" d="M213.417,332.391v0.062c0,2.218-0.093,4.416-0.268,6.593c-3.394,42.695-39.104,76.289-82.666,76.289
	c-23.586,0-44.882-9.843-59.977-25.65c-1.238-1.3-2.435-2.631-3.591-4.003c-12.092-14.414-19.377-32.996-19.377-53.291
	c0-45.811,37.133-82.944,82.944-82.944C176.284,249.447,213.417,286.58,213.417,332.391z"/>
<g>
	<path style="fill:#FF9300;" d="M213.149,339.046c-3.394,42.695-39.104,76.289-82.666,76.289c-23.586,0-44.882-9.843-59.977-25.65
		c-1.238-1.3-2.435-2.631-3.591-4.003c10.473-7.614,23.359-12.103,37.257-12.103c1.919,0,3.828,0.083,5.716,0.258
		c12.051-26.217,38.31-43.51,68.179-43.51C190.729,330.327,202.676,333.474,213.149,339.046z"/>
	<path style="fill:#FF9300;" d="M194.216,332.391c0,35.204-28.539,63.733-63.733,63.733c-18.015,0-34.275-7.46-45.852-19.47
		c-4.034-4.179-7.501-8.904-10.277-14.053c-4.86-8.997-7.614-19.274-7.614-30.21c0-35.204,28.539-63.733,63.743-63.733
		c29.333,0,54.034,19.81,61.452,46.791c1.444,5.293,2.249,10.864,2.27,16.622C194.216,332.174,194.216,332.287,194.216,332.391z"/>
</g>
<path style="fill:#FF7400;" d="M194.216,332.391c0,35.204-28.539,63.733-63.733,63.733c-18.015,0-34.275-7.46-45.852-19.47
	c6.16-1.991,12.732-3.075,19.542-3.075c1.919,0,3.828,0.083,5.716,0.258c12.051-26.217,38.31-43.51,68.179-43.51
	c5.53,0,10.947,0.599,16.137,1.744C194.216,332.174,194.216,332.287,194.216,332.391z"/>
<g>
	<path style="fill:#FEC007;" d="M130.476,233.428c-4.225,0-7.648-3.424-7.648-7.648v-16.22c0-4.224,3.424-7.648,7.648-7.648
		c4.225,0,7.648,3.424,7.648,7.648v16.219C138.125,230.004,134.701,233.428,130.476,233.428z"/>
	<path style="fill:#FEC007;" d="M222.504,286.208c-2.628,0-5.187-1.355-6.609-3.788c-2.133-3.646-0.906-8.331,2.74-10.463l14-8.189
		c3.646-2.133,8.333-0.907,10.464,2.74c2.133,3.646,0.906,8.331-2.74,10.463l-14,8.189
		C225.145,285.87,223.816,286.208,222.504,286.208z"/>
	<path style="fill:#FEC007;" d="M24.463,402.058c-2.628,0-5.186-1.355-6.609-3.787c-2.133-3.646-0.906-8.331,2.74-10.464
		l13.999-8.189c3.647-2.133,8.331-0.906,10.464,2.74s0.906,8.331-2.74,10.464l-13.999,8.189
		C27.104,401.72,25.775,402.058,24.463,402.058z"/>
	<path style="fill:#FEC007;" d="M183.784,247.718c-1.298,0-2.613-0.331-3.817-1.026c-3.659-2.112-4.912-6.791-2.799-10.448
		l8.111-14.046c2.113-3.658,6.79-4.912,10.448-2.799c3.659,2.112,4.912,6.791,2.799,10.448l-8.111,14.046
		C188.997,246.346,186.427,247.718,183.784,247.718z"/>
	<path style="fill:#FEC007;" d="M253.305,340.037h-16.219c-4.225,0-7.648-3.424-7.648-7.648s3.424-7.648,7.648-7.648h16.219
		c4.225,0,7.648,3.424,7.648,7.648S257.53,340.037,253.305,340.037z"/>
	<path style="fill:#FEC007;" d="M23.868,340.037H7.648c-4.225,0-7.648-3.424-7.648-7.648s3.424-7.648,7.648-7.648h16.219
		c4.225,0,7.648,3.424,7.648,7.648S28.092,340.037,23.868,340.037z"/>
	<path style="fill:#FEC007;" d="M76.653,248.017c-2.628,0-5.186-1.355-6.609-3.788l-8.189-13.999
		c-2.133-3.646-0.906-8.331,2.74-10.464c3.647-2.132,8.331-0.906,10.464,2.74l8.189,14c2.133,3.646,0.906,8.331-2.74,10.463
		C79.294,247.68,77.965,248.017,76.653,248.017z"/>
	<path style="fill:#FEC007;" d="M38.149,286.725c-1.298,0-2.613-0.331-3.818-1.026l-14.046-8.111
		c-3.658-2.113-4.911-6.791-2.798-10.448c2.112-3.658,6.788-4.911,10.449-2.799l14.046,8.111c3.658,2.113,4.911,6.791,2.798,10.448
		C43.362,285.353,40.792,286.725,38.149,286.725z"/>
</g>
<path style="fill:#CAFFFF;" d="M271.399,491.427H13.554c-5.364,0-9.413-4.997-8.169-10.218c4.61-19.356,22.007-33.745,42.77-33.745
	c3.202,0,6.323,0.347,9.331,0.999c-0.02-0.102-0.051-0.194-0.071-0.296c-0.826-3.549-1.285-7.251-1.285-11.065
	c0-1.621,0.082-3.212,0.235-4.793c2.407-24.281,22.894-43.26,47.808-43.26c5.558,0,10.891,0.959,15.858,2.692
	c0.01-0.051,0.02-0.092,0.041-0.143c1.193-5.048,3.029-9.851,5.425-14.308c10.045-18.744,29.819-31.491,52.571-31.491
	c32.929,0,59.617,26.688,59.617,59.617c0,3.304-0.275,6.547-0.785,9.708c14.563,3.467,25.648,15.919,27.076,31.175
	c0.102,1.101,0.153,2.213,0.153,3.345c0,4.222-0.744,8.271-2.101,12.023c-0.031,0.112-0.071,0.214-0.112,0.326
	c7.944,3.416,14.236,9.963,17.316,18.081C281.301,485.553,277.263,491.427,271.399,491.427z"/>
<g>
	<path style="fill:#7DF6FF;" d="M264.128,449.646c0,4.222-0.744,8.271-2.101,12.023c-5.507-1.877-19.233-4.507-33.449,8.576
		c-1.469,1.356-3.325,2.019-5.181,2.019c-2.06,0-4.12-0.826-5.629-2.468c-2.855-3.1-2.662-7.944,0.449-10.8
		c17.938-16.521,35.856-15.307,45.758-12.697C264.077,447.403,264.128,448.514,264.128,449.646z"/>
	<path style="fill:#7DF6FF;" d="M149.707,418.757c-0.663,0.174-1.326,0.265-1.978,0.265c-3.376,0-6.466-2.264-7.383-5.68
		c-3.498-13.084-18.224-20.743-20.274-21.742c1.193-5.048,3.029-9.851,5.425-14.308c0.204,0.071,0.398,0.143,0.592,0.235
		c0.959,0.418,23.374,10.677,29.034,31.869C156.213,413.474,153.786,417.665,149.707,418.757z"/>
	<path style="fill:#7DF6FF;" d="M85.582,466.81c-1.061,0.5-2.172,0.734-3.263,0.734c-2.866,0-5.619-1.622-6.924-4.375
		c-4.783-10.126-16.521-14.298-16.643-14.338c-0.418-0.143-0.867-0.367-1.336-0.663c-0.826-3.549-1.285-7.251-1.285-11.065
		c0-1.621,0.082-3.212,0.235-4.793c2.692,0.5,5.497,1.428,7.251,2.019c0.734,0.245,17.989,6.19,25.607,22.293
		C91.028,460.446,89.396,465.005,85.582,466.81z"/>
	<path style="fill:#7DF6FF;" d="M208.101,397.935c-4.225,0-7.648-3.424-7.648-7.648v-0.674c0-4.224,3.424-7.648,7.648-7.648
		s7.648,3.424,7.648,7.648v0.674C215.75,394.511,212.326,397.935,208.101,397.935z"/>
	<path style="fill:#7DF6FF;" d="M185.475,387.378c-4.225,0-7.648-3.424-7.648-7.648v-0.675c0-4.224,3.424-7.648,7.648-7.648
		s7.648,3.424,7.648,7.648v0.675C193.123,383.954,189.699,387.378,185.475,387.378z"/>
</g>
<g>
	<path style="fill:#FEC007;" d="M287.86,174.913c-4.225,0-7.648-3.424-7.648-7.648v-0.851c0-4.224,3.424-7.648,7.648-7.648
		c4.225,0,7.648,3.424,7.648,7.648v0.851C295.508,171.488,292.084,174.913,287.86,174.913z"/>
	<path style="fill:#FEC007;" d="M406.128,101.946c-4.225,0-7.648-3.424-7.648-7.648v-0.851c0-4.224,3.424-7.648,7.648-7.648
		c4.225,0,7.648,3.424,7.648,7.648v0.851C413.777,98.521,410.353,101.946,406.128,101.946z"/>
	<path style="fill:#FEC007;" d="M427.137,49.547c-4.225,0-7.648-3.424-7.648-7.648v-0.851c0-4.224,3.424-7.648,7.648-7.648
		c4.225,0,7.648,3.424,7.648,7.648v0.851C434.785,46.123,431.361,49.547,427.137,49.547z"/>
	<path style="fill:#FEC007;" d="M322.236,36.721c-4.225,0-7.648-3.424-7.648-7.648v-0.851c0-4.224,3.424-7.648,7.648-7.648
		c4.225,0,7.648,3.424,7.648,7.648v0.851C329.885,33.296,326.461,36.721,322.236,36.721z"/>
	<path style="fill:#FEC007;" d="M468.722,251.422c-4.225,0-7.648-3.424-7.648-7.648v-0.851c0-4.224,3.424-7.648,7.648-7.648
		s7.648,3.424,7.648,7.648v0.851C476.371,247.998,472.947,251.422,468.722,251.422z"/>
	<path style="fill:#FEC007;" d="M371.048,241.119c-4.225,0-7.648-3.424-7.648-7.648v-0.851c0-4.224,3.424-7.648,7.648-7.648
		c4.225,0,7.648,3.424,7.648,7.648v0.851C378.696,237.695,375.272,241.119,371.048,241.119z"/>
</g>
<g>
</g>
<g>
</g>
<g>
</g>
<g>
</g>
<g>
</g>
<g>
</g>
<g>
</g>
<g>
</g>
<g>
</g>
<g>
</g>
<g>
</g>
<g>
</g>
<g>
</g>
<g>
</g>
<g>
</g>
</svg>
